<mxfile host="app.diagrams.net" modified="2023-08-19T20:16:07.940Z" agent="Mozilla/5.0 (Windows NT 10.0; Win64; x64) AppleWebKit/537.36 (KHTML, like Gecko) Chrome/115.0.0.0 Safari/537.36" etag="UeUBnhg4_JpTIxU_FwRs" version="21.6.8" type="github">
  <diagram name="Page-1" id="vxQiwhmBXQwjBZL9es7v">
    <mxGraphModel dx="858" dy="880" grid="1" gridSize="10" guides="1" tooltips="1" connect="1" arrows="1" fold="1" page="1" pageScale="1" pageWidth="850" pageHeight="1100" math="0" shadow="0">
      <root>
        <mxCell id="0" />
        <mxCell id="1" parent="0" />
        <mxCell id="oNGUDVq2gTV8FD3QDTzs-1" value="Disfagia" style="text;strokeColor=none;fillColor=none;html=1;fontSize=24;fontStyle=1;verticalAlign=middle;align=left;fontColor=#FF0000;" vertex="1" parent="1">
          <mxGeometry x="40" y="40" width="200" height="40" as="geometry" />
        </mxCell>
        <mxCell id="oNGUDVq2gTV8FD3QDTzs-2" value="Mecanica" style="rounded=1;whiteSpace=wrap;html=1;fontSize=18;strokeColor=#36393d;fillColor=#cce5ff;verticalAlign=top;fontStyle=1;arcSize=5;" vertex="1" parent="1">
          <mxGeometry x="70" y="120" width="320" height="380" as="geometry" />
        </mxCell>
        <mxCell id="oNGUDVq2gTV8FD3QDTzs-3" value="Neuromuscular" style="rounded=1;whiteSpace=wrap;html=1;fontSize=18;strokeColor=#36393d;fillColor=#ffff88;verticalAlign=top;fontStyle=1;arcSize=5;" vertex="1" parent="1">
          <mxGeometry x="390" y="120" width="320" height="380" as="geometry" />
        </mxCell>
        <mxCell id="oNGUDVq2gTV8FD3QDTzs-10" value="" style="edgeStyle=orthogonalEdgeStyle;rounded=0;orthogonalLoop=1;jettySize=auto;html=1;" edge="1" parent="1" source="oNGUDVq2gTV8FD3QDTzs-5" target="oNGUDVq2gTV8FD3QDTzs-9">
          <mxGeometry relative="1" as="geometry" />
        </mxCell>
        <mxCell id="oNGUDVq2gTV8FD3QDTzs-5" value="Intermitente" style="rounded=1;whiteSpace=wrap;html=1;fillColor=#d0cee2;strokeColor=#56517e;" vertex="1" parent="1">
          <mxGeometry x="90" y="235" width="120" height="45" as="geometry" />
        </mxCell>
        <mxCell id="oNGUDVq2gTV8FD3QDTzs-12" value="" style="edgeStyle=orthogonalEdgeStyle;rounded=0;orthogonalLoop=1;jettySize=auto;html=1;" edge="1" parent="1" source="oNGUDVq2gTV8FD3QDTzs-6" target="oNGUDVq2gTV8FD3QDTzs-11">
          <mxGeometry relative="1" as="geometry" />
        </mxCell>
        <mxCell id="oNGUDVq2gTV8FD3QDTzs-6" value="Progresiva" style="rounded=1;whiteSpace=wrap;html=1;fillColor=#fad7ac;strokeColor=#b46504;" vertex="1" parent="1">
          <mxGeometry x="250" y="235" width="120" height="45" as="geometry" />
        </mxCell>
        <mxCell id="oNGUDVq2gTV8FD3QDTzs-16" value="" style="edgeStyle=orthogonalEdgeStyle;rounded=0;orthogonalLoop=1;jettySize=auto;html=1;" edge="1" parent="1" source="oNGUDVq2gTV8FD3QDTzs-7" target="oNGUDVq2gTV8FD3QDTzs-15">
          <mxGeometry relative="1" as="geometry" />
        </mxCell>
        <mxCell id="oNGUDVq2gTV8FD3QDTzs-7" value="Intermitente" style="rounded=1;whiteSpace=wrap;html=1;fillColor=#d0cee2;strokeColor=#56517e;" vertex="1" parent="1">
          <mxGeometry x="410" y="235" width="120" height="45" as="geometry" />
        </mxCell>
        <mxCell id="oNGUDVq2gTV8FD3QDTzs-18" value="" style="edgeStyle=orthogonalEdgeStyle;rounded=0;orthogonalLoop=1;jettySize=auto;html=1;" edge="1" parent="1" source="oNGUDVq2gTV8FD3QDTzs-8" target="oNGUDVq2gTV8FD3QDTzs-17">
          <mxGeometry relative="1" as="geometry" />
        </mxCell>
        <mxCell id="oNGUDVq2gTV8FD3QDTzs-8" value="Continua" style="rounded=1;whiteSpace=wrap;html=1;fillColor=#fad7ac;strokeColor=#b46504;" vertex="1" parent="1">
          <mxGeometry x="570" y="235" width="120" height="45" as="geometry" />
        </mxCell>
        <mxCell id="oNGUDVq2gTV8FD3QDTzs-9" value="Anillos esofagicos" style="rounded=1;whiteSpace=wrap;html=1;fillColor=#b0e3e6;strokeColor=#0e8088;" vertex="1" parent="1">
          <mxGeometry x="90" y="325" width="120" height="60" as="geometry" />
        </mxCell>
        <mxCell id="oNGUDVq2gTV8FD3QDTzs-14" value="" style="edgeStyle=orthogonalEdgeStyle;rounded=0;orthogonalLoop=1;jettySize=auto;html=1;" edge="1" parent="1" source="oNGUDVq2gTV8FD3QDTzs-11" target="oNGUDVq2gTV8FD3QDTzs-13">
          <mxGeometry relative="1" as="geometry" />
        </mxCell>
        <mxCell id="oNGUDVq2gTV8FD3QDTzs-11" value="ERGE / Cancer" style="rounded=1;whiteSpace=wrap;html=1;fillColor=#fad7ac;strokeColor=#b46504;" vertex="1" parent="1">
          <mxGeometry x="250" y="325" width="120" height="60" as="geometry" />
        </mxCell>
        <mxCell id="oNGUDVq2gTV8FD3QDTzs-13" value="Caso clinico:&lt;br&gt;ERGE: Pirosis Px joven&lt;br&gt;Cancer: Viejo, anema, etc" style="rounded=1;whiteSpace=wrap;html=1;align=left;fillColor=#76608a;fontColor=#ffffff;strokeColor=#432D57;" vertex="1" parent="1">
          <mxGeometry x="235" y="426" width="150" height="60" as="geometry" />
        </mxCell>
        <mxCell id="oNGUDVq2gTV8FD3QDTzs-15" value="Espasmo esofagico difuso" style="rounded=1;whiteSpace=wrap;html=1;fillColor=#b0e3e6;strokeColor=#0e8088;" vertex="1" parent="1">
          <mxGeometry x="410" y="325" width="120" height="60" as="geometry" />
        </mxCell>
        <mxCell id="oNGUDVq2gTV8FD3QDTzs-20" value="" style="edgeStyle=orthogonalEdgeStyle;rounded=0;orthogonalLoop=1;jettySize=auto;html=1;" edge="1" parent="1" source="oNGUDVq2gTV8FD3QDTzs-17" target="oNGUDVq2gTV8FD3QDTzs-19">
          <mxGeometry relative="1" as="geometry" />
        </mxCell>
        <mxCell id="oNGUDVq2gTV8FD3QDTzs-17" value="Esclerodermia / Acalasia" style="rounded=1;whiteSpace=wrap;html=1;fillColor=#fad7ac;strokeColor=#b46504;" vertex="1" parent="1">
          <mxGeometry x="570" y="325" width="120" height="60" as="geometry" />
        </mxCell>
        <mxCell id="oNGUDVq2gTV8FD3QDTzs-19" value="Esclerodermia: Pirosis&lt;br&gt;&amp;nbsp;Acalasia: â†“ peso" style="rounded=1;whiteSpace=wrap;html=1;align=left;fillColor=#76608a;fontColor=#ffffff;strokeColor=#432D57;" vertex="1" parent="1">
          <mxGeometry x="560" y="426" width="140" height="60" as="geometry" />
        </mxCell>
        <mxCell id="oNGUDVq2gTV8FD3QDTzs-21" value="Al principio solidos luego a liquidos" style="rounded=1;whiteSpace=wrap;html=1;fillColor=#76608a;fontColor=#ffffff;strokeColor=#432D57;" vertex="1" parent="1">
          <mxGeometry x="170" y="160" width="120" height="60" as="geometry" />
        </mxCell>
        <mxCell id="oNGUDVq2gTV8FD3QDTzs-22" value="Desde el principio ni liquidos ni solidos" style="rounded=1;whiteSpace=wrap;html=1;fillColor=#76608a;fontColor=#ffffff;strokeColor=#432D57;" vertex="1" parent="1">
          <mxGeometry x="490" y="160" width="120" height="60" as="geometry" />
        </mxCell>
        <mxCell id="oNGUDVq2gTV8FD3QDTzs-24" value="Acalasia" style="text;strokeColor=none;fillColor=none;html=1;fontSize=24;fontStyle=1;verticalAlign=middle;align=left;fontColor=#FF0000;" vertex="1" parent="1">
          <mxGeometry x="40" y="550" width="200" height="40" as="geometry" />
        </mxCell>
        <mxCell id="oNGUDVq2gTV8FD3QDTzs-27" value="" style="edgeStyle=orthogonalEdgeStyle;rounded=0;orthogonalLoop=1;jettySize=auto;html=1;" edge="1" parent="1" source="oNGUDVq2gTV8FD3QDTzs-25" target="oNGUDVq2gTV8FD3QDTzs-26">
          <mxGeometry relative="1" as="geometry" />
        </mxCell>
        <mxCell id="oNGUDVq2gTV8FD3QDTzs-25" value="Puede ser primaria o secundaria a tumor" style="rounded=1;whiteSpace=wrap;html=1;" vertex="1" parent="1">
          <mxGeometry x="70" y="600" width="130" height="60" as="geometry" />
        </mxCell>
        <mxCell id="oNGUDVq2gTV8FD3QDTzs-26" value="La manometria se igual por cualquier causa por eso hay que hacer endoscopia siempre" style="rounded=1;whiteSpace=wrap;html=1;" vertex="1" parent="1">
          <mxGeometry x="240" y="600" width="130" height="60" as="geometry" />
        </mxCell>
        <mxCell id="oNGUDVq2gTV8FD3QDTzs-28" value="Como leer la manometria.&lt;br&gt;Debe haber una muesca cuando inicia la deglusion.&lt;br&gt;Inmediaamente te fijas abajo a ver si el esfinter inferior esta relajado como deberia.&lt;br&gt;Ahora el cuerpo esofagico, debe irse contrallendo de arriba abajo progresivamente (Diagonal)" style="rounded=0;whiteSpace=wrap;html=1;verticalAlign=top;align=left;" vertex="1" parent="1">
          <mxGeometry x="440" y="600" width="200" height="160" as="geometry" />
        </mxCell>
        <mxCell id="oNGUDVq2gTV8FD3QDTzs-30" value="Ausencia de relajacio de esfinter esofagico inferiror.&lt;br&gt;&lt;div style=&quot;text-align: left;&quot;&gt;&lt;span style=&quot;background-color: initial;&quot;&gt;Tipo 1: Ausencia de peristalsis del cuerpo esofagico (azul)&lt;/span&gt;&lt;/div&gt;&lt;div style=&quot;text-align: left;&quot;&gt;&lt;span style=&quot;background-color: initial;&quot;&gt;Tipo 2: Todo el esofago esta todo el tiempo contraido levemente.(verde)&lt;/span&gt;&lt;/div&gt;&lt;div style=&quot;text-align: left;&quot;&gt;&lt;span style=&quot;background-color: initial;&quot;&gt;Tipo 3: Todo el esofago se contrae MUY intebso al mismo tiempo.&lt;/span&gt;&lt;/div&gt;" style="rounded=0;whiteSpace=wrap;html=1;verticalAlign=top;" vertex="1" parent="1">
          <mxGeometry x="440" y="780" width="200" height="150" as="geometry" />
        </mxCell>
        <mxCell id="oNGUDVq2gTV8FD3QDTzs-31" value="Tratamiento" style="shape=table;startSize=30;container=1;collapsible=0;childLayout=tableLayout;strokeColor=default;fontSize=16;" vertex="1" parent="1">
          <mxGeometry x="70" y="690" width="340" height="240" as="geometry" />
        </mxCell>
        <mxCell id="oNGUDVq2gTV8FD3QDTzs-32" value="" style="shape=tableRow;horizontal=0;startSize=0;swimlaneHead=0;swimlaneBody=0;strokeColor=inherit;top=0;left=0;bottom=0;right=0;collapsible=0;dropTarget=0;fillColor=none;points=[[0,0.5],[1,0.5]];portConstraint=eastwest;fontSize=16;" vertex="1" parent="oNGUDVq2gTV8FD3QDTzs-31">
          <mxGeometry y="30" width="340" height="105" as="geometry" />
        </mxCell>
        <mxCell id="oNGUDVq2gTV8FD3QDTzs-33" value="Bajo riesgo Cx" style="shape=partialRectangle;html=1;whiteSpace=wrap;connectable=0;strokeColor=inherit;overflow=hidden;fillColor=none;top=0;left=0;bottom=0;right=0;pointerEvents=1;fontSize=16;" vertex="1" parent="oNGUDVq2gTV8FD3QDTzs-32">
          <mxGeometry width="113" height="105" as="geometry">
            <mxRectangle width="113" height="105" as="alternateBounds" />
          </mxGeometry>
        </mxCell>
        <mxCell id="oNGUDVq2gTV8FD3QDTzs-34" value="Miomectomia&lt;br&gt;y Funduplicatura&lt;br&gt;1 eleccion" style="shape=partialRectangle;html=1;whiteSpace=wrap;connectable=0;strokeColor=inherit;overflow=hidden;fillColor=none;top=0;left=0;bottom=0;right=0;pointerEvents=1;fontSize=16;" vertex="1" parent="oNGUDVq2gTV8FD3QDTzs-32">
          <mxGeometry x="113" width="114" height="105" as="geometry">
            <mxRectangle width="114" height="105" as="alternateBounds" />
          </mxGeometry>
        </mxCell>
        <mxCell id="oNGUDVq2gTV8FD3QDTzs-47" value="Dilatacion endoscpica&lt;br&gt;Mas recidivas" style="shape=partialRectangle;html=1;whiteSpace=wrap;connectable=0;strokeColor=inherit;overflow=hidden;fillColor=none;top=0;left=0;bottom=0;right=0;pointerEvents=1;fontSize=16;" vertex="1" parent="oNGUDVq2gTV8FD3QDTzs-32">
          <mxGeometry x="227" width="113" height="105" as="geometry">
            <mxRectangle width="113" height="105" as="alternateBounds" />
          </mxGeometry>
        </mxCell>
        <mxCell id="oNGUDVq2gTV8FD3QDTzs-36" value="" style="shape=tableRow;horizontal=0;startSize=0;swimlaneHead=0;swimlaneBody=0;strokeColor=inherit;top=0;left=0;bottom=0;right=0;collapsible=0;dropTarget=0;fillColor=none;points=[[0,0.5],[1,0.5]];portConstraint=eastwest;fontSize=16;" vertex="1" parent="oNGUDVq2gTV8FD3QDTzs-31">
          <mxGeometry y="135" width="340" height="105" as="geometry" />
        </mxCell>
        <mxCell id="oNGUDVq2gTV8FD3QDTzs-37" value="Alto reisgo" style="shape=partialRectangle;html=1;whiteSpace=wrap;connectable=0;strokeColor=inherit;overflow=hidden;fillColor=none;top=0;left=0;bottom=0;right=0;pointerEvents=1;fontSize=16;" vertex="1" parent="oNGUDVq2gTV8FD3QDTzs-36">
          <mxGeometry width="113" height="105" as="geometry">
            <mxRectangle width="113" height="105" as="alternateBounds" />
          </mxGeometry>
        </mxCell>
        <mxCell id="oNGUDVq2gTV8FD3QDTzs-38" value="Calcio antagonistas" style="shape=partialRectangle;html=1;whiteSpace=wrap;connectable=0;strokeColor=inherit;overflow=hidden;fillColor=none;top=0;left=0;bottom=0;right=0;pointerEvents=1;fontSize=16;" vertex="1" parent="oNGUDVq2gTV8FD3QDTzs-36">
          <mxGeometry x="113" width="114" height="105" as="geometry">
            <mxRectangle width="114" height="105" as="alternateBounds" />
          </mxGeometry>
        </mxCell>
        <mxCell id="oNGUDVq2gTV8FD3QDTzs-48" value="Botox endoscopico" style="shape=partialRectangle;html=1;whiteSpace=wrap;connectable=0;strokeColor=inherit;overflow=hidden;fillColor=none;top=0;left=0;bottom=0;right=0;pointerEvents=1;fontSize=16;" vertex="1" parent="oNGUDVq2gTV8FD3QDTzs-36">
          <mxGeometry x="227" width="113" height="105" as="geometry">
            <mxRectangle width="113" height="105" as="alternateBounds" />
          </mxGeometry>
        </mxCell>
        <mxCell id="oNGUDVq2gTV8FD3QDTzs-51" value="" style="edgeStyle=orthogonalEdgeStyle;rounded=0;orthogonalLoop=1;jettySize=auto;html=1;" edge="1" parent="1" source="oNGUDVq2gTV8FD3QDTzs-49" target="oNGUDVq2gTV8FD3QDTzs-50">
          <mxGeometry relative="1" as="geometry" />
        </mxCell>
        <mxCell id="oNGUDVq2gTV8FD3QDTzs-49" value="Espasmo Esofagico Difuso" style="rounded=1;whiteSpace=wrap;html=1;fontSize=16;" vertex="1" parent="1">
          <mxGeometry x="70" y="980" width="120" height="60" as="geometry" />
        </mxCell>
        <mxCell id="oNGUDVq2gTV8FD3QDTzs-53" value="" style="edgeStyle=orthogonalEdgeStyle;rounded=0;orthogonalLoop=1;jettySize=auto;html=1;" edge="1" parent="1" source="oNGUDVq2gTV8FD3QDTzs-50" target="oNGUDVq2gTV8FD3QDTzs-52">
          <mxGeometry relative="1" as="geometry" />
        </mxCell>
        <mxCell id="oNGUDVq2gTV8FD3QDTzs-50" value="Es casi igual que Acalasia tipo 3 pero si se relaja el esfinter" style="rounded=1;whiteSpace=wrap;html=1;" vertex="1" parent="1">
          <mxGeometry x="235" y="980" width="120" height="60" as="geometry" />
        </mxCell>
        <mxCell id="oNGUDVq2gTV8FD3QDTzs-52" value="El tratamiento es el mismo" style="rounded=1;whiteSpace=wrap;html=1;" vertex="1" parent="1">
          <mxGeometry x="410" y="980" width="120" height="60" as="geometry" />
        </mxCell>
      </root>
    </mxGraphModel>
  </diagram>
</mxfile>
